{
	"accessors" : 
	[
		{
			"bufferView" : 2,
			"byteOffset" : 0,
			"componentType" : 5126,
			"count" : 9970,
			"max" : 
			[
				1,
				1,
				1,
				1
			],
			"min" : 
			[
				0.006584956776350737,
				0.006584956776350737,
				0.006584956776350737,
				1
			],
			"name" : "accessor_color_m0-PolyPaper21_-779866",
			"type" : "VEC4"
		},
		{
			"bufferView" : 2,
			"byteOffset" : 159520,
			"componentType" : 5126,
			"count" : 9998,
			"max" : 
			[
				1,
				1,
				1,
				1
			],
			"min" : 
			[
				0.006584956776350737,
				0.006584956776350737,
				0.006584956776350737,
				1
			],
			"name" : "accessor_color_m1-PolyPaper18_-779872",
			"type" : "VEC4"
		},
		{
			"bufferView" : 2,
			"byteOffset" : 319488,
			"componentType" : 5126,
			"count" : 1480,
			"max" : 
			[
				1,
				0.6120656132698059,
				0.3392233550548553,
				1
			],
			"min" : 
			[
				0.1904628723859787,
				0.2844520807266235,
				0.2508402466773987,
				1
			],
			"name" : "accessor_color_m2-PolyPaper16_-781090",
			"type" : "VEC4"
		},
		{
			"bufferView" : 2,
			"byteOffset" : 343168,
			"componentType" : 5126,
			"count" : 9976,
			"max" : 
			[
				1,
				1,
				1,
				1
			],
			"min" : 
			[
				0.006584956776350737,
				0.006584956776350737,
				0.006584956776350737,
				1
			],
			"name" : "accessor_color_m3-PolyPaper18_-779870",
			"type" : "VEC4"
		},
		{
			"bufferView" : 2,
			"byteOffset" : 502784,
			"componentType" : 5126,
			"count" : 296,
			"max" : 
			[
				0.6800203323364258,
				0.6800203323364258,
				0.6800203323364258,
				0.2509804
			],
			"min" : 
			[
				0.6800203323364258,
				0.6800203323364258,
				0.6800203323364258,
				0.2509804
			],
			"name" : "accessor_color_m4-PolyGlass24_-781092",
			"type" : "VEC4"
		},
		{
			"bufferView" : 2,
			"byteOffset" : 507520,
			"componentType" : 5126,
			"count" : 9894,
			"max" : 
			[
				1,
				1,
				1,
				1
			],
			"min" : 
			[
				0.006584956776350737,
				0.006584956776350737,
				0.006584956776350737,
				1
			],
			"name" : "accessor_color_m5-PolyPaper21_-779876",
			"type" : "VEC4"
		},
		{
			"bufferView" : 2,
			"byteOffset" : 665824,
			"componentType" : 5126,
			"count" : 9978,
			"max" : 
			[
				1,
				1,
				1,
				1
			],
			"min" : 
			[
				0.006584956776350737,
				0.006584956776350737,
				0.006584956776350737,
				1
			],
			"name" : "accessor_color_m6-PolyPaper18_-779878",
			"type" : "VEC4"
		},
		{
			"bufferView" : 2,
			"byteOffset" : 825472,
			"componentType" : 5126,
			"count" : 10000,
			"max" : 
			[
				1,
				1,
				1,
				1
			],
			"min" : 
			[
				0.006584956776350737,
				0.006584956776350737,
				0.006584956776350737,
				1
			],
			"name" : "accessor_color_m7-PolyPaper18_-779868",
			"type" : "VEC4"
		},
		{
			"bufferView" : 2,
			"byteOffset" : 985472,
			"componentType" : 5126,
			"count" : 9988,
			"max" : 
			[
				1,
				1,
				1,
				1
			],
			"min" : 
			[
				0,
				0.006584956776350737,
				0.006584956776350737,
				1
			],
			"name" : "accessor_color_m8-PolyPaper16_-779874",
			"type" : "VEC4"
		},
		{
			"bufferView" : 2,
			"byteOffset" : 1145280,
			"componentType" : 5126,
			"count" : 9984,
			"max" : 
			[
				1,
				1,
				1,
				1
			],
			"min" : 
			[
				0.006584956776350737,
				0.006584956776350737,
				0.006584956776350737,
				1
			],
			"name" : "accessor_color_m9-PolyPaper18_-779862",
			"type" : "VEC4"
		},
		{
			"bufferView" : 0,
			"byteOffset" : 0,
			"componentType" : 5123,
			"count" : 14142,
			"max" : 
			[
				9969
			],
			"min" : 
			[
				0
			],
			"name" : "accessor_indices_0_m0-PolyPaper21_-779866",
			"type" : "SCALAR"
		},
		{
			"bufferView" : 0,
			"byteOffset" : 28284,
			"componentType" : 5123,
			"count" : 13806,
			"max" : 
			[
				9997
			],
			"min" : 
			[
				0
			],
			"name" : "accessor_indices_0_m1-PolyPaper18_-779872",
			"type" : "SCALAR"
		},
		{
			"bufferView" : 0,
			"byteOffset" : 55896,
			"componentType" : 5123,
			"count" : 2046,
			"max" : 
			[
				1479
			],
			"min" : 
			[
				0
			],
			"name" : "accessor_indices_0_m2-PolyPaper16_-781090",
			"type" : "SCALAR"
		},
		{
			"bufferView" : 0,
			"byteOffset" : 59988,
			"componentType" : 5123,
			"count" : 14184,
			"max" : 
			[
				9975
			],
			"min" : 
			[
				0
			],
			"name" : "accessor_indices_0_m3-PolyPaper18_-779870",
			"type" : "SCALAR"
		},
		{
			"bufferView" : 0,
			"byteOffset" : 88356,
			"componentType" : 5123,
			"count" : 588,
			"max" : 
			[
				295
			],
			"min" : 
			[
				0
			],
			"name" : "accessor_indices_0_m4-PolyGlass24_-781092",
			"type" : "SCALAR"
		},
		{
			"bufferView" : 0,
			"byteOffset" : 89532,
			"componentType" : 5123,
			"count" : 13806,
			"max" : 
			[
				9893
			],
			"min" : 
			[
				0
			],
			"name" : "accessor_indices_0_m5-PolyPaper21_-779876",
			"type" : "SCALAR"
		},
		{
			"bufferView" : 0,
			"byteOffset" : 117144,
			"componentType" : 5123,
			"count" : 13476,
			"max" : 
			[
				9977
			],
			"min" : 
			[
				0
			],
			"name" : "accessor_indices_0_m6-PolyPaper18_-779878",
			"type" : "SCALAR"
		},
		{
			"bufferView" : 0,
			"byteOffset" : 144096,
			"componentType" : 5123,
			"count" : 14016,
			"max" : 
			[
				9999
			],
			"min" : 
			[
				0
			],
			"name" : "accessor_indices_0_m7-PolyPaper18_-779868",
			"type" : "SCALAR"
		},
		{
			"bufferView" : 0,
			"byteOffset" : 172128,
			"componentType" : 5123,
			"count" : 14070,
			"max" : 
			[
				9987
			],
			"min" : 
			[
				0
			],
			"name" : "accessor_indices_0_m8-PolyPaper16_-779874",
			"type" : "SCALAR"
		},
		{
			"bufferView" : 0,
			"byteOffset" : 200268,
			"componentType" : 5123,
			"count" : 15024,
			"max" : 
			[
				9983
			],
			"min" : 
			[
				0
			],
			"name" : "accessor_indices_0_m9-PolyPaper18_-779862",
			"type" : "SCALAR"
		},
		{
			"bufferView" : 1,
			"byteOffset" : 119640,
			"componentType" : 5126,
			"count" : 9970,
			"max" : 
			[
				1,
				1,
				1
			],
			"min" : 
			[
				-1,
				-1,
				-1
			],
			"name" : "accessor_normal_m0-PolyPaper21_-779866",
			"type" : "VEC3"
		},
		{
			"bufferView" : 1,
			"byteOffset" : 359256,
			"componentType" : 5126,
			"count" : 9998,
			"max" : 
			[
				1,
				1,
				1
			],
			"min" : 
			[
				-1,
				-1,
				-1
			],
			"name" : "accessor_normal_m1-PolyPaper18_-779872",
			"type" : "VEC3"
		},
		{
			"bufferView" : 1,
			"byteOffset" : 496992,
			"componentType" : 5126,
			"count" : 1480,
			"max" : 
			[
				1,
				1,
				1
			],
			"min" : 
			[
				-1,
				-1,
				-1
			],
			"name" : "accessor_normal_m2-PolyPaper16_-781090",
			"type" : "VEC3"
		},
		{
			"bufferView" : 1,
			"byteOffset" : 634464,
			"componentType" : 5126,
			"count" : 9976,
			"max" : 
			[
				1,
				1,
				1
			],
			"min" : 
			[
				-1,
				-1,
				-1
			],
			"name" : "accessor_normal_m3-PolyPaper18_-779870",
			"type" : "VEC3"
		},
		{
			"bufferView" : 1,
			"byteOffset" : 757728,
			"componentType" : 5126,
			"count" : 296,
			"max" : 
			[
				1,
				1,
				1
			],
			"min" : 
			[
				-1,
				-1,
				-1
			],
			"name" : "accessor_normal_m4-PolyGlass24_-781092",
			"type" : "VEC3"
		},
		{
			"bufferView" : 1,
			"byteOffset" : 880008,
			"componentType" : 5126,
			"count" : 9894,
			"max" : 
			[
				1,
				1,
				1
			],
			"min" : 
			[
				-1,
				-1,
				-1
			],
			"name" : "accessor_normal_m5-PolyPaper21_-779876",
			"type" : "VEC3"
		},
		{
			"bufferView" : 1,
			"byteOffset" : 1118472,
			"componentType" : 5126,
			"count" : 9978,
			"max" : 
			[
				1,
				1,
				1
			],
			"min" : 
			[
				-1,
				-1,
				-1
			],
			"name" : "accessor_normal_m6-PolyPaper18_-779878",
			"type" : "VEC3"
		},
		{
			"bufferView" : 1,
			"byteOffset" : 1358208,
			"componentType" : 5126,
			"count" : 10000,
			"max" : 
			[
				1,
				1,
				1
			],
			"min" : 
			[
				-1,
				-1,
				-1
			],
			"name" : "accessor_normal_m7-PolyPaper18_-779868",
			"type" : "VEC3"
		},
		{
			"bufferView" : 1,
			"byteOffset" : 1598064,
			"componentType" : 5126,
			"count" : 9988,
			"max" : 
			[
				1,
				1,
				1
			],
			"min" : 
			[
				-1,
				-1,
				-1
			],
			"name" : "accessor_normal_m8-PolyPaper16_-779874",
			"type" : "VEC3"
		},
		{
			"bufferView" : 1,
			"byteOffset" : 1837728,
			"componentType" : 5126,
			"count" : 9984,
			"max" : 
			[
				1,
				1,
				1
			],
			"min" : 
			[
				-1,
				-1,
				-1
			],
			"name" : "accessor_normal_m9-PolyPaper18_-779862",
			"type" : "VEC3"
		},
		{
			"bufferView" : 1,
			"byteOffset" : 0,
			"componentType" : 5126,
			"count" : 9970,
			"max" : 
			[
				3.221129,
				1.739741,
				2.525906
			],
			"min" : 
			[
				1.973072,
				-0.2940395,
				-0.03007112
			],
			"name" : "accessor_position_m0-PolyPaper21_-779866",
			"type" : "VEC3"
		},
		{
			"bufferView" : 1,
			"byteOffset" : 239280,
			"componentType" : 5126,
			"count" : 9998,
			"max" : 
			[
				3.224115,
				1.739981,
				2.643977
			],
			"min" : 
			[
				1.970341,
				-0.2999623,
				-0.03264572
			],
			"name" : "accessor_position_m1-PolyPaper18_-779872",
			"type" : "VEC3"
		},
		{
			"bufferView" : 1,
			"byteOffset" : 479232,
			"componentType" : 5126,
			"count" : 1480,
			"max" : 
			[
				2.680285,
				0.9924576000000001,
				2.433104
			],
			"min" : 
			[
				1.979998,
				-0.2981373,
				-0.006740886
			],
			"name" : "accessor_position_m2-PolyPaper16_-781090",
			"type" : "VEC3"
		},
		{
			"bufferView" : 1,
			"byteOffset" : 514752,
			"componentType" : 5126,
			"count" : 9976,
			"max" : 
			[
				3.219216,
				1.739959,
				2.579293
			],
			"min" : 
			[
				1.976807,
				-0.2949009,
				-0.01216429
			],
			"name" : "accessor_position_m3-PolyPaper18_-779870",
			"type" : "VEC3"
		},
		{
			"bufferView" : 1,
			"byteOffset" : 754176,
			"componentType" : 5126,
			"count" : 296,
			"max" : 
			[
				3.212022,
				1.071197,
				2.426278
			],
			"min" : 
			[
				1.981256,
				-0.09747430999999999,
				0.003729886
			],
			"name" : "accessor_position_m4-PolyGlass24_-781092",
			"type" : "VEC3"
		},
		{
			"bufferView" : 1,
			"byteOffset" : 761280,
			"componentType" : 5126,
			"count" : 9894,
			"max" : 
			[
				3.22006,
				1.559985,
				2.656575
			],
			"min" : 
			[
				1.978064,
				-0.2999867,
				-0.02840492
			],
			"name" : "accessor_position_m5-PolyPaper21_-779876",
			"type" : "VEC3"
		},
		{
			"bufferView" : 1,
			"byteOffset" : 998736,
			"componentType" : 5126,
			"count" : 9978,
			"max" : 
			[
				3.220078,
				1.740009,
				2.644016
			],
			"min" : 
			[
				1.969917,
				-0.2939379,
				-0.03212814
			],
			"name" : "accessor_position_m6-PolyPaper18_-779878",
			"type" : "VEC3"
		},
		{
			"bufferView" : 1,
			"byteOffset" : 1238208,
			"componentType" : 5126,
			"count" : 10000,
			"max" : 
			[
				3.220031,
				1.739963,
				2.641309
			],
			"min" : 
			[
				1.969865,
				-0.2900376,
				-0.03465484
			],
			"name" : "accessor_position_m7-PolyPaper18_-779868",
			"type" : "VEC3"
		},
		{
			"bufferView" : 1,
			"byteOffset" : 1478208,
			"componentType" : 5126,
			"count" : 9988,
			"max" : 
			[
				3.22009,
				1.740032,
				2.566156
			],
			"min" : 
			[
				1.974529,
				-0.3000082,
				-0.03013498
			],
			"name" : "accessor_position_m8-PolyPaper16_-779874",
			"type" : "VEC3"
		},
		{
			"bufferView" : 1,
			"byteOffset" : 1717920,
			"componentType" : 5126,
			"count" : 9984,
			"max" : 
			[
				2.990561,
				1.362787,
				2.410014
			],
			"min" : 
			[
				1.989962,
				-0.2900397,
				-0.004482154
			],
			"name" : "accessor_position_m9-PolyPaper18_-779862",
			"type" : "VEC3"
		}
	],
	"asset" : 
	{
		"copyright" : "Unknown",
		"generator" : "glTF 1-to-2 Upgrader for Google Blocks",
		"version" : "2.0"
	},
	"bufferViews" : 
	[
		{
			"buffer" : 0,
			"byteLength" : 230316,
			"byteOffset" : 0,
			"name" : "ushortBufferView",
			"target" : 34963
		},
		{
			"buffer" : 0,
			"byteLength" : 1957536,
			"byteOffset" : 230316,
			"byteStride" : 12,
			"name" : "vec3BufferView",
			"target" : 34962
		},
		{
			"buffer" : 0,
			"byteLength" : 1305024,
			"byteOffset" : 2187852,
			"byteStride" : 16,
			"name" : "vec4BufferView",
			"target" : 34962
		}
	],
	"buffers" : 
	[
		{
			"byteLength" : 3492876,
			"name" : "model",
			"uri" : "model.bin"
		}
	],
	"materials" : 
	[
		{
			"alphaMode" : "OPAQUE",
			"doubleSided" : false,
			"name" : "BlocksPaper",
			"pbrMetallicRoughness" : 
			{
				"baseColorFactor" : 
				[
					1,
					1,
					1,
					1
				],
				"metallicFactor" : 0,
				"roughnessFactor" : 0.6
			}
		},
		{
			"alphaMode" : "BLEND",
			"doubleSided" : false,
			"name" : "BlocksGlass",
			"pbrMetallicRoughness" : 
			{
				"baseColorFactor" : 
				[
					0.2,
					0.2,
					1,
					0.3
				],
				"metallicFactor" : 1,
				"roughnessFactor" : 0.4
			}
		},
		{
			"alphaMode" : "OPAQUE",
			"doubleSided" : true,
			"name" : "BlocksGem",
			"pbrMetallicRoughness" : 
			{
				"baseColorFactor" : 
				[
					1,
					0.4,
					1,
					1
				],
				"metallicFactor" : 0,
				"roughnessFactor" : 0.1
			}
		}
	],
	"meshes" : 
	[
		{
			"name" : "mesh_m0-PolyPaper21_-779866",
			"primitives" : 
			[
				{
					"attributes" : 
					{
						"COLOR_0" : 0,
						"NORMAL" : 20,
						"POSITION" : 30
					},
					"indices" : 10,
					"material" : 0,
					"mode" : 4
				}
			]
		},
		{
			"name" : "mesh_m1-PolyPaper18_-779872",
			"primitives" : 
			[
				{
					"attributes" : 
					{
						"COLOR_0" : 1,
						"NORMAL" : 21,
						"POSITION" : 31
					},
					"indices" : 11,
					"material" : 0,
					"mode" : 4
				}
			]
		},
		{
			"name" : "mesh_m2-PolyPaper16_-781090",
			"primitives" : 
			[
				{
					"attributes" : 
					{
						"COLOR_0" : 2,
						"NORMAL" : 22,
						"POSITION" : 32
					},
					"indices" : 12,
					"material" : 0,
					"mode" : 4
				}
			]
		},
		{
			"name" : "mesh_m3-PolyPaper18_-779870",
			"primitives" : 
			[
				{
					"attributes" : 
					{
						"COLOR_0" : 3,
						"NORMAL" : 23,
						"POSITION" : 33
					},
					"indices" : 13,
					"material" : 0,
					"mode" : 4
				}
			]
		},
		{
			"name" : "mesh_m4-PolyGlass24_-781092",
			"primitives" : 
			[
				{
					"attributes" : 
					{
						"COLOR_0" : 4,
						"NORMAL" : 24,
						"POSITION" : 34
					},
					"indices" : 14,
					"material" : 1,
					"mode" : 4
				}
			]
		},
		{
			"name" : "mesh_m5-PolyPaper21_-779876",
			"primitives" : 
			[
				{
					"attributes" : 
					{
						"COLOR_0" : 5,
						"NORMAL" : 25,
						"POSITION" : 35
					},
					"indices" : 15,
					"material" : 0,
					"mode" : 4
				}
			]
		},
		{
			"name" : "mesh_m6-PolyPaper18_-779878",
			"primitives" : 
			[
				{
					"attributes" : 
					{
						"COLOR_0" : 6,
						"NORMAL" : 26,
						"POSITION" : 36
					},
					"indices" : 16,
					"material" : 0,
					"mode" : 4
				}
			]
		},
		{
			"name" : "mesh_m7-PolyPaper18_-779868",
			"primitives" : 
			[
				{
					"attributes" : 
					{
						"COLOR_0" : 7,
						"NORMAL" : 27,
						"POSITION" : 37
					},
					"indices" : 17,
					"material" : 0,
					"mode" : 4
				}
			]
		},
		{
			"name" : "mesh_m8-PolyPaper16_-779874",
			"primitives" : 
			[
				{
					"attributes" : 
					{
						"COLOR_0" : 8,
						"NORMAL" : 28,
						"POSITION" : 38
					},
					"indices" : 18,
					"material" : 0,
					"mode" : 4
				}
			]
		},
		{
			"name" : "mesh_m9-PolyPaper18_-779862",
			"primitives" : 
			[
				{
					"attributes" : 
					{
						"COLOR_0" : 9,
						"NORMAL" : 29,
						"POSITION" : 39
					},
					"indices" : 19,
					"material" : 0,
					"mode" : 4
				}
			]
		}
	],
	"nodes" : 
	[
		{
			"matrix" : 
			[
				1,
				0,
				0,
				0,
				0,
				1,
				0,
				0,
				0,
				0,
				1,
				0,
				0,
				0,
				0,
				1
			],
			"mesh" : 8,
			"name" : "node_MeshObject-1479924864-PolyPaper16"
		},
		{
			"matrix" : 
			[
				1,
				0,
				0,
				0,
				0,
				1,
				0,
				0,
				0,
				0,
				1,
				0,
				0,
				0,
				0,
				1
			],
			"mesh" : 1,
			"name" : "node_MeshObject-1998644928-PolyPaper18"
		},
		{
			"matrix" : 
			[
				1,
				0,
				0,
				0,
				0,
				1,
				0,
				0,
				0,
				0,
				1,
				0,
				0,
				0,
				0,
				1
			],
			"mesh" : 6,
			"name" : "node_MeshObject-442484736-PolyPaper18"
		},
		{
			"matrix" : 
			[
				1,
				0,
				0,
				0,
				0,
				1,
				0,
				0,
				0,
				0,
				1,
				0,
				0,
				0,
				0,
				1
			],
			"mesh" : 5,
			"name" : "node_MeshObject-961204800-PolyPaper21"
		},
		{
			"matrix" : 
			[
				1,
				0,
				0,
				0,
				0,
				1,
				0,
				0,
				0,
				0,
				1,
				0,
				0,
				0,
				0,
				1
			],
			"mesh" : 2,
			"name" : "node_MeshObject1113675456-PolyPaper16"
		},
		{
			"matrix" : 
			[
				1,
				0,
				0,
				0,
				0,
				1,
				0,
				0,
				0,
				0,
				1,
				0,
				0,
				0,
				0,
				1
			],
			"mesh" : 7,
			"name" : "node_MeshObject1258882240-PolyPaper18"
		},
		{
			"matrix" : 
			[
				1,
				0,
				0,
				0,
				0,
				1,
				0,
				0,
				0,
				0,
				1,
				0,
				0,
				0,
				0,
				1
			],
			"mesh" : 4,
			"name" : "node_MeshObject1632395520-PolyGlass24"
		},
		{
			"matrix" : 
			[
				1,
				0,
				0,
				0,
				0,
				1,
				0,
				0,
				0,
				0,
				1,
				0,
				0,
				0,
				0,
				1
			],
			"mesh" : 3,
			"name" : "node_MeshObject1777602304-PolyPaper18"
		},
		{
			"matrix" : 
			[
				1,
				0,
				0,
				0,
				0,
				1,
				0,
				0,
				0,
				0,
				1,
				0,
				0,
				0,
				0,
				1
			],
			"mesh" : 9,
			"name" : "node_MeshObject221442112-PolyPaper18"
		},
		{
			"matrix" : 
			[
				1,
				0,
				0,
				0,
				0,
				1,
				0,
				0,
				0,
				0,
				1,
				0,
				0,
				0,
				0,
				1
			],
			"mesh" : 0,
			"name" : "node_MeshObject740162176-PolyPaper21"
		}
	],
	"scene" : 0,
	"scenes" : 
	[
		{
			"extras" : {},
			"name" : "defaultScene",
			"nodes" : 
			[
				9,
				1,
				4,
				7,
				6,
				3,
				2,
				5,
				0,
				8
			]
		}
	]
}